<svg width="237" height="111" viewBox="0 0 237 111" fill="none" xmlns="http://www.w3.org/2000/svg">
<path d="M55.7038 24.2318V25.553C54.2065 25.597 53.0615 25.7732 52.2689 26.0814C51.5202 26.3457 51.0138 26.8741 50.7496 27.6668C50.4853 28.4154 50.3532 29.6045 50.3532 31.2339V63.998C50.3532 65.5833 50.4853 66.7724 50.7496 67.5651C51.0138 68.3577 51.5202 68.8862 52.2689 69.1504C53.0615 69.4146 54.2065 69.5908 55.7038 69.6789V71C54.6909 70.9119 53.4138 70.8679 51.8725 70.8679C50.3752 70.8238 48.8559 70.8018 47.3146 70.8018C45.5971 70.8018 43.9898 70.8238 42.4925 70.8679C40.9952 70.8679 39.7841 70.9119 38.8593 71V69.6789C40.3566 69.5908 41.4796 69.4146 42.2282 69.1504C43.0209 68.8862 43.5494 68.3577 43.8136 67.5651C44.0778 66.7724 44.2099 65.5833 44.2099 63.998V27.6668L44.4742 27.865L28.2903 71.3303H27.2334L10.5871 28.4595V63.3374C10.5871 64.9228 10.7192 66.1779 10.9834 67.1027C11.2917 67.9834 11.8642 68.622 12.7009 69.0183C13.5816 69.3706 14.8808 69.5908 16.5982 69.6789V71C15.8056 70.9119 14.7707 70.8679 13.4936 70.8679C12.2165 70.8238 11.0054 70.8018 9.86045 70.8018C8.75951 70.8018 7.63654 70.8238 6.49156 70.8679C5.39061 70.8679 4.46582 70.9119 3.71718 71V69.6789C5.21446 69.5908 6.33743 69.3706 7.08607 69.0183C7.87875 68.622 8.4072 67.9834 8.67143 67.1027C8.93566 66.1779 9.06777 64.9228 9.06777 63.3374V31.2339C9.06777 29.6045 8.93566 28.4154 8.67143 27.6668C8.4072 26.8741 7.87875 26.3457 7.08607 26.0814C6.33743 25.7732 5.21446 25.597 3.71718 25.553V24.2318C4.46582 24.2759 5.39061 24.3199 6.49156 24.364C7.63654 24.408 8.75951 24.43 9.86045 24.43C10.8293 24.43 11.8201 24.408 12.833 24.364C13.8899 24.3199 14.7707 24.2759 15.4753 24.2318L30.4701 63.7338L29.3472 64.2622L44.2099 24.43C44.7384 24.43 45.2448 24.43 45.7292 24.43C46.2577 24.43 46.7862 24.43 47.3146 24.43C48.8559 24.43 50.3752 24.408 51.8725 24.364C53.4138 24.3199 54.6909 24.2759 55.7038 24.2318ZM79.8207 23.9016L95.9385 65.4512C96.5991 67.1247 97.3477 68.2476 98.1845 68.8201C99.0212 69.3486 99.7918 69.6348 100.496 69.6789V71C99.6157 70.9119 98.5368 70.8679 97.2597 70.8679C95.9826 70.8238 94.7055 70.8018 93.4284 70.8018C91.7109 70.8018 90.1035 70.8238 88.6062 70.8679C87.109 70.8679 85.8979 70.9119 84.9731 71V69.6789C87.2191 69.5908 88.6503 69.2165 89.2668 68.5559C89.8833 67.8513 89.7512 66.376 88.8705 64.1301L76.5839 31.2999L77.6408 30.4412L66.147 60.2988C65.4424 62.0603 65.024 63.5576 64.8919 64.7907C64.7598 65.9797 64.8699 66.9265 65.2222 67.6311C65.6185 68.3357 66.2571 68.8421 67.1378 69.1504C68.0626 69.4587 69.2076 69.6348 70.5728 69.6789V71C69.3397 70.9119 68.0406 70.8679 66.6754 70.8679C65.3543 70.8238 64.1212 70.8018 62.9762 70.8018C61.8753 70.8018 60.9285 70.8238 60.1358 70.8679C59.3872 70.8679 58.6826 70.9119 58.022 71V69.6789C58.9027 69.4587 59.8055 68.9522 60.7303 68.1596C61.6551 67.3228 62.4918 65.9136 63.2405 63.9319L78.7638 23.9016C78.9399 23.9016 79.1161 23.9016 79.2922 23.9016C79.4684 23.9016 79.6445 23.9016 79.8207 23.9016ZM87.8796 51.9757V53.2968H68.1947L68.8553 51.9757H87.8796ZM118.421 24.2318V25.553C116.924 25.597 115.779 25.7732 114.986 26.0814C114.237 26.3457 113.731 26.8741 113.467 27.6668C113.203 28.4154 113.07 29.6045 113.07 31.2339V63.998C113.07 65.5833 113.203 66.7724 113.467 67.5651C113.731 68.3577 114.237 68.8862 114.986 69.1504C115.779 69.3706 116.924 69.4807 118.421 69.4807H123.243C125.313 69.4807 126.986 69.2605 128.263 68.8201C129.585 68.3798 130.62 67.6972 131.368 66.7724C132.161 65.8035 132.755 64.5264 133.152 62.9411C133.548 61.3557 133.856 59.4181 134.076 57.1281H135.596C135.464 58.4933 135.398 60.2988 135.398 62.5447C135.398 63.3815 135.42 64.5925 135.464 66.1779C135.552 67.7192 135.684 69.3266 135.86 71C133.614 70.9119 131.082 70.8679 128.263 70.8679C125.445 70.8238 122.935 70.8018 120.733 70.8018C119.764 70.8018 118.509 70.8018 116.968 70.8018C115.471 70.8018 113.841 70.8238 112.08 70.8679C110.318 70.8679 108.535 70.8899 106.729 70.9339C104.923 70.9339 103.206 70.956 101.577 71V69.6789C103.074 69.5908 104.197 69.4146 104.945 69.1504C105.738 68.8862 106.267 68.3577 106.531 67.5651C106.795 66.7724 106.927 65.5833 106.927 63.998V31.2339C106.927 29.6045 106.795 28.4154 106.531 27.6668C106.267 26.8741 105.738 26.3457 104.945 26.0814C104.197 25.7732 103.074 25.597 101.577 25.553V24.2318C102.501 24.2759 103.712 24.3199 105.21 24.364C106.707 24.408 108.314 24.43 110.032 24.43C111.573 24.43 113.092 24.408 114.59 24.364C116.131 24.3199 117.408 24.2759 118.421 24.2318ZM174.425 24.2318V25.553C173.588 25.7291 172.685 26.2356 171.716 27.0723C170.792 27.909 169.955 29.3182 169.206 31.2999L153.683 71.3303C153.595 71.3303 153.507 71.3303 153.419 71.3303C153.331 71.3303 153.243 71.3303 153.154 71.3303C153.066 71.3303 152.978 71.3303 152.89 71.3303C152.802 71.3303 152.714 71.3303 152.626 71.3303L136.508 29.7806C135.848 28.1072 135.099 27.0062 134.262 26.4778C133.426 25.9053 132.655 25.597 131.95 25.553V24.2318C132.831 24.2759 133.91 24.3199 135.187 24.364C136.508 24.408 137.785 24.43 139.018 24.43C140.736 24.43 142.343 24.408 143.84 24.364C145.338 24.3199 146.549 24.2759 147.474 24.2318V25.553C145.976 25.597 144.831 25.7732 144.039 26.0814C143.29 26.3897 142.872 26.9402 142.784 27.7329C142.74 28.4815 143.004 29.6045 143.576 31.1017L155.863 63.6677L154.806 64.7907L166.3 34.933C167.225 32.555 167.665 30.7054 167.621 29.3843C167.577 28.0191 167.07 27.0503 166.102 26.4778C165.133 25.9053 163.724 25.597 161.874 25.553V24.2318C163.151 24.2759 164.45 24.3199 165.771 24.364C167.092 24.408 168.326 24.43 169.47 24.43C170.615 24.43 171.562 24.408 172.311 24.364C173.06 24.3199 173.764 24.2759 174.425 24.2318ZM193.573 24.2318V25.553C192.076 25.597 190.931 25.7732 190.138 26.0814C189.39 26.3457 188.883 26.8741 188.619 27.6668C188.355 28.4154 188.223 29.6045 188.223 31.2339V63.998C188.223 65.5833 188.355 66.7724 188.619 67.5651C188.883 68.3577 189.39 68.8862 190.138 69.1504C190.931 69.4146 192.076 69.5908 193.573 69.6789V71C192.561 70.9119 191.283 70.8679 189.742 70.8679C188.245 70.8238 186.726 70.8018 185.184 70.8018C183.467 70.8018 181.859 70.8238 180.362 70.8679C178.865 70.8679 177.654 70.9119 176.729 71V69.6789C178.226 69.5908 179.349 69.4146 180.098 69.1504C180.891 68.8862 181.419 68.3577 181.683 67.5651C181.947 66.7724 182.08 65.5833 182.08 63.998V31.2339C182.08 29.6045 181.947 28.4154 181.683 27.6668C181.419 26.8741 180.891 26.3457 180.098 26.0814C179.349 25.7732 178.226 25.597 176.729 25.553V24.2318C177.654 24.2759 178.865 24.3199 180.362 24.364C181.859 24.408 183.467 24.43 185.184 24.43C186.726 24.43 188.245 24.408 189.742 24.364C191.283 24.3199 192.561 24.2759 193.573 24.2318ZM232.076 24.2318C231.9 25.7732 231.767 27.2705 231.679 28.7237C231.635 30.177 231.613 31.2779 231.613 32.0265C231.613 32.8192 231.635 33.5899 231.679 34.3385C231.723 35.0431 231.767 35.6376 231.812 36.1221H230.292C230.028 33.5238 229.654 31.4761 229.169 29.9788C228.685 28.4375 227.848 27.3585 226.659 26.742C225.514 26.0814 223.775 25.7512 221.441 25.7512H215.958C214.461 25.7512 213.316 25.8833 212.523 26.1475C211.774 26.3677 211.268 26.8741 211.004 27.6668C210.739 28.4154 210.607 29.6045 210.607 31.2339V63.998C210.607 65.5833 210.739 66.7724 211.004 67.5651C211.268 68.3577 211.774 68.8862 212.523 69.1504C213.316 69.3706 214.461 69.4807 215.958 69.4807H220.78C223.554 69.4807 225.646 69.1064 227.055 68.3577C228.509 67.6091 229.544 66.398 230.16 64.7246C230.821 63.0071 231.305 60.6952 231.613 57.7887H233.133C233.001 58.9777 232.934 60.563 232.934 62.5447C232.934 63.3815 232.956 64.5925 233.001 66.1779C233.089 67.7192 233.221 69.3266 233.397 71C231.151 70.9119 228.619 70.8679 225.8 70.8679C222.982 70.8238 220.472 70.8018 218.27 70.8018C217.301 70.8018 216.046 70.8018 214.505 70.8018C213.007 70.8018 211.378 70.8238 209.616 70.8679C207.855 70.8679 206.071 70.8899 204.266 70.9339C202.46 70.9339 200.743 70.956 199.113 71V69.6789C200.611 69.5908 201.734 69.4146 202.482 69.1504C203.275 68.8862 203.803 68.3577 204.068 67.5651C204.332 66.7724 204.464 65.5833 204.464 63.998V31.2339C204.464 29.6045 204.332 28.4154 204.068 27.6668C203.803 26.8741 203.275 26.3457 202.482 26.0814C201.734 25.7732 200.611 25.597 199.113 25.553V24.2318C200.743 24.2759 202.46 24.3199 204.266 24.364C206.071 24.364 207.855 24.386 209.616 24.43C211.378 24.43 213.007 24.43 214.505 24.43C216.046 24.43 217.301 24.43 218.27 24.43C220.296 24.43 222.586 24.43 225.14 24.43C227.738 24.386 230.05 24.3199 232.076 24.2318ZM220.714 46.8232C220.714 46.8232 220.714 47.0434 220.714 47.4838C220.714 47.9242 220.714 48.1444 220.714 48.1444H208.626C208.626 48.1444 208.626 47.9242 208.626 47.4838C208.626 47.0434 208.626 46.8232 208.626 46.8232H220.714ZM222.63 38.1038C222.453 40.6139 222.365 42.5296 222.365 43.8507C222.409 45.1718 222.431 46.3829 222.431 47.4838C222.431 48.5848 222.453 49.7958 222.498 51.1169C222.542 52.4381 222.652 54.3537 222.828 56.8639H221.308C221.132 55.4547 220.912 54.0895 220.648 52.7683C220.428 51.4032 219.899 50.3022 219.063 49.4655C218.27 48.5848 216.905 48.1444 214.967 48.1444V46.8232C216.42 46.8232 217.521 46.537 218.27 45.9645C219.063 45.348 219.635 44.5773 219.987 43.6525C220.34 42.7277 220.582 41.7809 220.714 40.8121C220.846 39.7992 220.978 38.8964 221.11 38.1038H222.63Z" fill="#F0F9F1"/>
<path d="M50.5665 94.3841C50.5225 94.8025 50.4895 95.2098 50.4675 95.6062C50.4564 95.9915 50.4509 96.2888 50.4509 96.4979C50.4509 96.7622 50.4564 97.0099 50.4675 97.2411C50.4785 97.4723 50.4895 97.676 50.5005 97.8521H50.1207C50.0436 97.0814 49.939 96.4759 49.8069 96.0356C49.6748 95.5842 49.4436 95.2594 49.1133 95.0612C48.783 94.863 48.2711 94.764 47.5775 94.764H46.5371C46.1628 94.764 45.8765 94.797 45.6783 94.863C45.4912 94.9181 45.3646 95.0447 45.2985 95.2429C45.2325 95.43 45.1994 95.7273 45.1994 96.1346V104.326C45.1994 104.722 45.238 105.019 45.315 105.217C45.4031 105.416 45.5682 105.548 45.8105 105.614C46.0527 105.68 46.405 105.724 46.8674 105.746V106.076C46.5811 106.054 46.2178 106.043 45.7774 106.043C45.3371 106.032 44.8912 106.027 44.4398 106.027C44.0104 106.027 43.6086 106.032 43.2342 106.043C42.8599 106.043 42.5572 106.054 42.326 106.076V105.746C42.7003 105.724 42.981 105.68 43.1682 105.614C43.3664 105.548 43.4985 105.416 43.5645 105.217C43.6306 105.019 43.6636 104.722 43.6636 104.326V96.1346C43.6636 95.7273 43.6306 95.43 43.5645 95.2429C43.4985 95.0447 43.3664 94.9126 43.1682 94.8465C42.981 94.7695 42.7003 94.7254 42.326 94.7144V94.3841C42.7333 94.3951 43.1627 94.4062 43.6141 94.4172C44.0655 94.4172 44.5113 94.4227 44.9517 94.4337C45.3921 94.4337 45.7994 94.4337 46.1738 94.4337C46.5591 94.4337 46.8729 94.4337 47.1151 94.4337C47.6215 94.4337 48.194 94.4337 48.8326 94.4337C49.4821 94.4227 50.0601 94.4062 50.5665 94.3841ZM48.0068 100.197C48.0068 100.197 48.0068 100.252 48.0068 100.362C48.0068 100.472 48.0068 100.527 48.0068 100.527H44.704C44.704 100.527 44.704 100.472 44.704 100.362C44.704 100.252 44.704 100.197 44.704 100.197H48.0068ZM48.3206 98.0173C48.2766 98.6448 48.2546 99.1237 48.2546 99.454C48.2656 99.7843 48.2711 100.087 48.2711 100.362C48.2711 100.638 48.2766 100.94 48.2876 101.271C48.2986 101.601 48.3261 102.08 48.3702 102.707H47.9903C47.9463 102.355 47.8912 102.014 47.8252 101.683C47.7701 101.342 47.638 101.067 47.4288 100.858C47.2307 100.638 46.8894 100.527 46.405 100.527V100.197C46.7683 100.197 47.0435 100.126 47.2307 99.9824C47.4288 99.8283 47.572 99.6356 47.66 99.4044C47.7481 99.1732 47.8087 98.9365 47.8417 98.6943C47.8747 98.4411 47.9078 98.2154 47.9408 98.0173H48.3206ZM51.7281 94.3841C51.9593 94.3951 52.262 94.4062 52.6364 94.4172C53.0107 94.4282 53.3795 94.4337 53.7428 94.4337C54.2603 94.4337 54.7557 94.4282 55.2291 94.4172C55.7025 94.4062 56.0383 94.4006 56.2365 94.4006C57.1282 94.4006 57.8659 94.5273 58.4494 94.7805C59.0439 95.0337 59.4842 95.3805 59.7705 95.8209C60.0677 96.2502 60.2164 96.7347 60.2164 97.2741C60.2164 97.6044 60.1503 97.9567 60.0182 98.331C59.8861 98.7053 59.6549 99.0576 59.3246 99.3879C59.0053 99.7182 58.565 99.9934 58.0035 100.214C57.442 100.423 56.7319 100.527 55.8731 100.527H54.2878V100.197H55.708C56.4897 100.197 57.0842 100.076 57.4915 99.8338C57.9099 99.5806 58.1906 99.2503 58.3338 98.843C58.4879 98.4246 58.565 97.9622 58.565 97.4558C58.565 96.586 58.3558 95.9144 57.9374 95.441C57.5301 94.9566 56.8255 94.7144 55.8236 94.7144C55.3172 94.7144 54.9869 94.808 54.8327 94.9952C54.6786 95.1823 54.6015 95.5621 54.6015 96.1346V104.326C54.6015 104.722 54.6346 105.019 54.7006 105.217C54.7667 105.416 54.8933 105.548 55.0805 105.614C55.2786 105.68 55.5649 105.724 55.9392 105.746V106.076C55.686 106.054 55.3667 106.043 54.9814 106.043C54.6071 106.032 54.2272 106.027 53.8419 106.027C53.4125 106.027 53.0107 106.032 52.6364 106.043C52.262 106.043 51.9593 106.054 51.7281 106.076V105.746C52.1024 105.724 52.3831 105.68 52.5703 105.614C52.7685 105.548 52.9006 105.416 52.9666 105.217C53.0327 105.019 53.0657 104.722 53.0657 104.326V96.1346C53.0657 95.7273 53.0327 95.43 52.9666 95.2429C52.9006 95.0447 52.7685 94.9126 52.5703 94.8465C52.3831 94.7695 52.1024 94.7254 51.7281 94.7144V94.3841ZM54.3538 100.247C54.9483 100.269 55.4162 100.296 55.7575 100.329C56.0988 100.351 56.3741 100.373 56.5832 100.395C56.8034 100.417 57.0126 100.445 57.2108 100.478C57.9484 100.599 58.4769 100.825 58.7961 101.155C59.1264 101.474 59.3686 101.975 59.5228 102.658L59.9356 104.342C60.0457 104.827 60.1558 105.179 60.2659 105.399C60.387 105.608 60.5687 105.707 60.8109 105.696C60.998 105.685 61.1522 105.625 61.2733 105.515C61.4054 105.405 61.543 105.256 61.6861 105.069L61.9338 105.25C61.7026 105.592 61.4604 105.856 61.2072 106.043C60.965 106.219 60.6182 106.307 60.1668 106.307C59.7595 106.307 59.4017 106.186 59.0934 105.944C58.7851 105.702 58.5539 105.228 58.3998 104.524L58.0365 102.872C57.9374 102.399 57.8218 101.992 57.6897 101.65C57.5686 101.298 57.3924 101.023 57.1612 100.825C56.9411 100.626 56.6108 100.527 56.1704 100.527H54.3869L54.3538 100.247ZM70.6771 94.3841C70.633 94.7695 70.6 95.1438 70.578 95.5071C70.567 95.8704 70.5615 96.1456 70.5615 96.3328C70.5615 96.531 70.567 96.7236 70.578 96.9108C70.589 97.087 70.6 97.2356 70.611 97.3567H70.2312C70.1651 96.7071 70.0715 96.1952 69.9504 95.8209C69.8293 95.4355 69.6202 95.1658 69.3229 95.0117C69.0367 94.8465 68.6018 94.764 68.0183 94.764H66.6476C66.2733 94.764 65.987 94.797 65.7889 94.863C65.6017 94.9181 65.4751 95.0447 65.409 95.2429C65.343 95.43 65.31 95.7273 65.31 96.1346V104.326C65.31 104.722 65.343 105.019 65.409 105.217C65.4751 105.416 65.6017 105.548 65.7889 105.614C65.987 105.669 66.2733 105.696 66.6476 105.696H67.8531C68.5467 105.696 69.0697 105.603 69.422 105.416C69.7853 105.228 70.044 104.926 70.1982 104.507C70.3633 104.078 70.4844 103.5 70.5615 102.773H70.9413C70.9083 103.071 70.8918 103.467 70.8918 103.962C70.8918 104.172 70.8973 104.474 70.9083 104.871C70.9303 105.256 70.9633 105.658 71.0074 106.076C70.4459 106.054 69.8128 106.043 69.1082 106.043C68.4036 106.032 67.7761 106.027 67.2256 106.027C66.9834 106.027 66.6696 106.027 66.2843 106.027C65.91 106.027 65.5026 106.032 65.0622 106.043C64.6219 106.043 64.176 106.049 63.7246 106.06C63.2732 106.06 62.8438 106.065 62.4365 106.076V105.746C62.8108 105.724 63.0916 105.68 63.2787 105.614C63.4769 105.548 63.609 105.416 63.6751 105.217C63.7411 105.019 63.7741 104.722 63.7741 104.326V96.1346C63.7741 95.7273 63.7411 95.43 63.6751 95.2429C63.609 95.0447 63.4769 94.9126 63.2787 94.8465C63.0916 94.7695 62.8108 94.7254 62.4365 94.7144V94.3841C62.8438 94.3951 63.2732 94.4062 63.7246 94.4172C64.176 94.4172 64.6219 94.4227 65.0622 94.4337C65.5026 94.4337 65.91 94.4337 66.2843 94.4337C66.6696 94.4337 66.9834 94.4337 67.2256 94.4337C67.732 94.4337 68.3045 94.4337 68.9431 94.4337C69.5926 94.4227 70.1706 94.4062 70.6771 94.3841ZM67.8366 100.032C67.8366 100.032 67.8366 100.087 67.8366 100.197C67.8366 100.307 67.8366 100.362 67.8366 100.362H64.8145C64.8145 100.362 64.8145 100.307 64.8145 100.197C64.8145 100.087 64.8145 100.032 64.8145 100.032H67.8366ZM68.3155 97.8521C68.2715 98.4797 68.2495 98.9586 68.2495 99.2888C68.2605 99.6191 68.266 99.9219 68.266 100.197C68.266 100.472 68.2715 100.775 68.2825 101.105C68.2935 101.436 68.321 101.915 68.3651 102.542H67.9853C67.9412 102.19 67.8862 101.849 67.8201 101.518C67.7651 101.177 67.633 100.902 67.4238 100.693C67.2256 100.472 66.8843 100.362 66.3999 100.362V100.032C66.7632 100.032 67.0384 99.9604 67.2256 99.8173C67.4238 99.6632 67.5669 99.4705 67.655 99.2393C67.743 99.0081 67.8036 98.7714 67.8366 98.5292C67.8697 98.276 67.9027 98.0503 67.9357 97.8521H68.3155ZM82.8707 94.3841V94.7144C82.4964 94.7254 82.2102 94.7805 82.012 94.8796C81.8248 94.9786 81.6982 95.1383 81.6322 95.3585C81.5661 95.5787 81.5331 95.8924 81.5331 96.2998V106.159C81.467 106.159 81.401 106.159 81.3349 106.159C81.2799 106.159 81.2193 106.159 81.1532 106.159L74.2173 95.441V104.161C74.2173 104.557 74.2503 104.871 74.3164 105.102C74.3934 105.322 74.5366 105.482 74.7457 105.581C74.9659 105.669 75.2907 105.724 75.7201 105.746V106.076C75.5219 106.054 75.2632 106.043 74.9439 106.043C74.6246 106.032 74.3219 106.027 74.0356 106.027C73.7604 106.027 73.4797 106.032 73.1934 106.043C72.9182 106.043 72.687 106.054 72.4998 106.076V105.746C72.8741 105.724 73.1549 105.669 73.342 105.581C73.5402 105.482 73.6723 105.322 73.7384 105.102C73.8044 104.871 73.8375 104.557 73.8375 104.161V96.1346C73.8375 95.7273 73.8044 95.43 73.7384 95.2429C73.6723 95.0447 73.5402 94.9126 73.342 94.8465C73.1549 94.7695 72.8741 94.7254 72.4998 94.7144V94.3841C72.687 94.3951 72.9182 94.4062 73.1934 94.4172C73.4797 94.4282 73.7604 94.4337 74.0356 94.4337C74.2778 94.4337 74.509 94.4282 74.7292 94.4172C74.9494 94.4062 75.1476 94.3951 75.3237 94.3841L81.1532 103.368V96.2998C81.1532 95.8924 81.1147 95.5787 81.0377 95.3585C80.9716 95.1383 80.8285 94.9786 80.6083 94.8796C80.3991 94.7805 80.0798 94.7254 79.6505 94.7144V94.3841C79.8486 94.3951 80.1074 94.4062 80.4266 94.4172C80.7569 94.4282 81.0597 94.4337 81.3349 94.4337C81.6212 94.4337 81.9019 94.4282 82.1771 94.4172C82.4634 94.4062 82.6946 94.3951 82.8707 94.3841ZM89.48 94.1529C90.2066 94.1529 90.8011 94.263 91.2635 94.4832C91.7369 94.6924 92.1553 94.9401 92.5186 95.2264C92.7388 95.3915 92.9039 95.4135 93.014 95.2924C93.1351 95.1603 93.2177 94.8575 93.2618 94.3841H93.6416C93.6196 94.7915 93.603 95.2869 93.592 95.8704C93.581 96.4539 93.5755 97.2246 93.5755 98.1824H93.1957C93.1186 97.709 93.0471 97.3347 92.981 97.0594C92.915 96.7732 92.8324 96.531 92.7333 96.3328C92.6452 96.1346 92.5241 95.9365 92.37 95.7383C92.0287 95.2869 91.5993 94.9621 91.0819 94.764C90.5644 94.5548 90.0195 94.4502 89.447 94.4502C88.9075 94.4502 88.4176 94.5878 87.9772 94.863C87.5478 95.1273 87.1735 95.5126 86.8543 96.019C86.546 96.5255 86.3038 97.1365 86.1276 97.8521C85.9625 98.5677 85.8799 99.3714 85.8799 100.263C85.8799 101.188 85.9735 102.008 86.1607 102.724C86.3478 103.428 86.6065 104.023 86.9368 104.507C87.2781 104.992 87.6745 105.361 88.1258 105.614C88.5882 105.856 89.0837 105.977 89.6121 105.977C90.1075 105.977 90.625 105.878 91.1645 105.68C91.7039 105.482 92.1278 105.162 92.436 104.722C92.6783 104.403 92.8434 104.056 92.9315 103.682C93.0306 103.307 93.1186 102.784 93.1957 102.113H93.5755C93.5755 103.115 93.581 103.924 93.592 104.54C93.603 105.146 93.6196 105.658 93.6416 106.076H93.2618C93.2177 105.603 93.1407 105.306 93.0306 105.184C92.9315 105.063 92.7608 105.08 92.5186 105.234C92.1113 105.52 91.6764 105.773 91.214 105.994C90.7626 106.203 90.1791 106.307 89.4635 106.307C88.4176 106.307 87.4983 106.071 86.7056 105.597C85.924 105.124 85.3129 104.441 84.8726 103.55C84.4432 102.658 84.2285 101.584 84.2285 100.329C84.2285 99.0962 84.4542 98.0173 84.9056 97.0925C85.357 96.1677 85.9735 95.4465 86.7552 94.9291C87.5479 94.4117 88.4561 94.1529 89.48 94.1529ZM102.319 106.076V105.746C102.694 105.724 102.974 105.68 103.162 105.614C103.36 105.548 103.492 105.416 103.558 105.217C103.624 105.019 103.657 104.722 103.657 104.326V96.1346C103.657 95.7273 103.624 95.43 103.558 95.2429C103.492 95.0447 103.36 94.9126 103.162 94.8465C102.974 94.7695 102.694 94.7254 102.319 94.7144V94.3841C102.573 94.3951 102.892 94.4062 103.277 94.4172C103.663 94.4282 104.042 94.4337 104.417 94.4337C104.846 94.4337 105.248 94.4282 105.622 94.4172C105.997 94.4062 106.299 94.3951 106.531 94.3841V94.7144C106.156 94.7254 105.87 94.7695 105.672 94.8465C105.485 94.9126 105.358 95.0447 105.292 95.2429C105.226 95.43 105.193 95.7273 105.193 96.1346V104.326C105.193 104.722 105.226 105.019 105.292 105.217C105.358 105.416 105.485 105.548 105.672 105.614C105.87 105.68 106.156 105.724 106.531 105.746V106.076C106.299 106.054 105.997 106.043 105.622 106.043C105.248 106.032 104.846 106.027 104.417 106.027C104.042 106.027 103.663 106.032 103.277 106.043C102.892 106.043 102.573 106.054 102.319 106.076ZM95.4165 106.076V105.746C95.7908 105.724 96.0715 105.68 96.2587 105.614C96.4569 105.548 96.589 105.416 96.655 105.217C96.7211 105.019 96.7541 104.722 96.7541 104.326V96.1346C96.7541 95.7273 96.7211 95.43 96.655 95.2429C96.589 95.0447 96.4569 94.9126 96.2587 94.8465C96.0715 94.7695 95.7908 94.7254 95.4165 94.7144V94.3841C95.6477 94.3951 95.9504 94.4062 96.3247 94.4172C96.6991 94.4282 97.1009 94.4337 97.5303 94.4337C97.9156 94.4337 98.2954 94.4282 98.6698 94.4172C99.0551 94.4062 99.3744 94.3951 99.6276 94.3841V94.7144C99.2533 94.7254 98.967 94.7695 98.7688 94.8465C98.5817 94.9126 98.4551 95.0447 98.389 95.2429C98.323 95.43 98.2899 95.7273 98.2899 96.1346V104.326C98.2899 104.722 98.323 105.019 98.389 105.217C98.4551 105.416 98.5817 105.548 98.7688 105.614C98.967 105.68 99.2533 105.724 99.6276 105.746V106.076C99.3744 106.054 99.0551 106.043 98.6698 106.043C98.2954 106.032 97.9156 106.027 97.5303 106.027C97.1009 106.027 96.6991 106.032 96.3247 106.043C95.9504 106.043 95.6477 106.054 95.4165 106.076ZM97.7119 100.362V100.032H104.235V100.362H97.7119ZM125.024 94.3841V94.7144C124.65 94.7254 124.363 94.7695 124.165 94.8465C123.978 94.9126 123.852 95.0447 123.785 95.2429C123.719 95.43 123.686 95.7273 123.686 96.1346V104.326C123.686 104.722 123.719 105.019 123.785 105.217C123.852 105.416 123.978 105.548 124.165 105.614C124.363 105.68 124.65 105.724 125.024 105.746V106.076C124.771 106.054 124.452 106.043 124.066 106.043C123.692 106.032 123.312 106.027 122.927 106.027C122.497 106.027 122.096 106.032 121.721 106.043C121.347 106.043 121.044 106.054 120.813 106.076V105.746C121.187 105.724 121.468 105.68 121.655 105.614C121.853 105.548 121.985 105.416 122.052 105.217C122.118 105.019 122.151 104.722 122.151 104.326V95.2429L122.217 95.2924L118.171 106.159H117.906L113.745 95.441V104.161C113.745 104.557 113.778 104.871 113.844 105.102C113.921 105.322 114.064 105.482 114.273 105.581C114.494 105.669 114.818 105.724 115.248 105.746V106.076C115.049 106.054 114.791 106.043 114.472 106.043C114.152 106.032 113.849 106.027 113.563 106.027C113.288 106.027 113.007 106.032 112.721 106.043C112.446 106.043 112.215 106.054 112.027 106.076V105.746C112.402 105.724 112.682 105.669 112.87 105.581C113.068 105.482 113.2 105.322 113.266 105.102C113.332 104.871 113.365 104.557 113.365 104.161V96.1346C113.365 95.7273 113.332 95.43 113.266 95.2429C113.2 95.0447 113.068 94.9126 112.87 94.8465C112.682 94.7695 112.402 94.7254 112.027 94.7144V94.3841C112.215 94.3951 112.446 94.4062 112.721 94.4172C113.007 94.4282 113.288 94.4337 113.563 94.4337C113.805 94.4337 114.053 94.4282 114.306 94.4172C114.571 94.4062 114.791 94.3951 114.967 94.3841L118.716 104.26L118.435 104.392L122.151 94.4337C122.283 94.4337 122.409 94.4337 122.53 94.4337C122.663 94.4337 122.795 94.4337 122.927 94.4337C123.312 94.4337 123.692 94.4282 124.066 94.4172C124.452 94.4062 124.771 94.3951 125.024 94.3841ZM131.053 94.3016L135.083 104.689C135.248 105.107 135.435 105.388 135.644 105.531C135.853 105.663 136.046 105.735 136.222 105.746V106.076C136.002 106.054 135.732 106.043 135.413 106.043C135.094 106.032 134.774 106.027 134.455 106.027C134.026 106.027 133.624 106.032 133.25 106.043C132.875 106.043 132.573 106.054 132.341 106.076V105.746C132.903 105.724 133.261 105.63 133.415 105.465C133.569 105.289 133.536 104.92 133.316 104.359L130.244 96.1512L130.508 95.9365L127.635 103.401C127.459 103.841 127.354 104.216 127.321 104.524C127.288 104.821 127.316 105.058 127.404 105.234C127.503 105.41 127.662 105.537 127.883 105.614C128.114 105.691 128.4 105.735 128.741 105.746V106.076C128.433 106.054 128.108 106.043 127.767 106.043C127.437 106.032 127.128 106.027 126.842 106.027C126.567 106.027 126.33 106.032 126.132 106.043C125.945 106.043 125.769 106.054 125.604 106.076V105.746C125.824 105.691 126.049 105.564 126.281 105.366C126.512 105.157 126.721 104.805 126.908 104.309L130.789 94.3016C130.833 94.3016 130.877 94.3016 130.921 94.3016C130.965 94.3016 131.009 94.3016 131.053 94.3016ZM133.068 101.32V101.65H128.147L128.312 101.32H133.068ZM142.169 94.1529C142.885 94.1529 143.463 94.263 143.903 94.4832C144.344 94.6924 144.756 94.9401 145.142 95.2264C145.285 95.3365 145.395 95.3915 145.472 95.3915C145.681 95.3915 145.819 95.0557 145.885 94.3841H146.265C146.243 94.7915 146.226 95.2869 146.215 95.8704C146.204 96.4539 146.199 97.2246 146.199 98.1824H145.819C145.742 97.72 145.648 97.2741 145.538 96.8447C145.428 96.4154 145.246 96.0466 144.993 95.7383C144.674 95.3309 144.256 95.0172 143.738 94.797C143.221 94.5658 142.687 94.4502 142.136 94.4502C141.586 94.4502 141.085 94.5878 140.633 94.863C140.193 95.1273 139.813 95.5126 139.494 96.019C139.175 96.5255 138.927 97.1365 138.751 97.8521C138.586 98.5567 138.503 99.3549 138.503 100.247C138.503 102.228 138.822 103.682 139.461 104.606C140.099 105.52 141.09 105.977 142.433 105.977C142.83 105.977 143.171 105.922 143.457 105.812C143.755 105.691 143.986 105.575 144.151 105.465C144.36 105.322 144.492 105.19 144.547 105.069C144.602 104.937 144.63 104.766 144.63 104.557V102.972C144.63 102.52 144.586 102.184 144.498 101.964C144.41 101.744 144.245 101.595 144.002 101.518C143.771 101.441 143.424 101.397 142.962 101.386V101.056C143.16 101.067 143.391 101.078 143.656 101.089C143.92 101.089 144.195 101.094 144.481 101.105C144.779 101.105 145.048 101.105 145.29 101.105C145.654 101.105 145.979 101.1 146.265 101.089C146.562 101.078 146.81 101.067 147.008 101.056V101.386C146.766 101.397 146.584 101.436 146.463 101.502C146.342 101.568 146.259 101.7 146.215 101.898C146.182 102.096 146.166 102.399 146.166 102.806V106.076H145.835C145.824 105.889 145.78 105.685 145.703 105.465C145.637 105.245 145.533 105.135 145.39 105.135C145.323 105.135 145.257 105.151 145.191 105.184C145.125 105.217 145.01 105.295 144.845 105.416C144.481 105.691 144.096 105.911 143.689 106.076C143.281 106.23 142.808 106.307 142.268 106.307C141.134 106.307 140.16 106.076 139.345 105.614C138.542 105.14 137.925 104.463 137.496 103.583C137.066 102.702 136.852 101.65 136.852 100.428C136.852 99.1402 137.083 98.0283 137.545 97.0925C138.008 96.1567 138.635 95.4355 139.428 94.9291C140.232 94.4117 141.145 94.1529 142.169 94.1529ZM152.906 94.3016L156.935 104.689C157.1 105.107 157.287 105.388 157.496 105.531C157.706 105.663 157.898 105.735 158.074 105.746V106.076C157.854 106.054 157.585 106.043 157.265 106.043C156.946 106.032 156.627 106.027 156.307 106.027C155.878 106.027 155.476 106.032 155.102 106.043C154.728 106.043 154.425 106.054 154.194 106.076V105.746C154.755 105.724 155.113 105.63 155.267 105.465C155.421 105.289 155.388 104.92 155.168 104.359L152.096 96.1512L152.361 95.9365L149.487 103.401C149.311 103.841 149.206 104.216 149.173 104.524C149.14 104.821 149.168 105.058 149.256 105.234C149.355 105.41 149.515 105.537 149.735 105.614C149.966 105.691 150.252 105.735 150.594 105.746V106.076C150.285 106.054 149.961 106.043 149.619 106.043C149.289 106.032 148.981 106.027 148.694 106.027C148.419 106.027 148.182 106.032 147.984 106.043C147.797 106.043 147.621 106.054 147.456 106.076V105.746C147.676 105.691 147.902 105.564 148.133 105.366C148.364 105.157 148.573 104.805 148.76 104.309L152.641 94.3016C152.685 94.3016 152.729 94.3016 152.773 94.3016C152.817 94.3016 152.862 94.3016 152.906 94.3016ZM154.92 101.32V101.65H149.999L150.164 101.32H154.92ZM167.056 94.3841V94.7144L160.467 105.696H163.704C164.221 105.696 164.64 105.641 164.959 105.531C165.289 105.421 165.548 105.25 165.735 105.019C165.933 104.777 166.082 104.458 166.181 104.061C166.28 103.665 166.357 103.181 166.412 102.608H166.792C166.759 102.949 166.742 103.401 166.742 103.962C166.742 104.172 166.748 104.474 166.759 104.871C166.781 105.256 166.814 105.658 166.858 106.076C166.451 106.054 166.005 106.043 165.52 106.043C165.036 106.032 164.552 106.027 164.067 106.027C163.594 106.027 163.153 106.027 162.746 106.027C162.097 106.027 161.408 106.032 160.682 106.043C159.966 106.043 159.295 106.054 158.667 106.076V105.746L165.306 94.764H162.085C161.568 94.764 161.144 94.819 160.814 94.9291C160.495 95.0392 160.236 95.2153 160.038 95.4576C159.851 95.6888 159.707 96.0025 159.608 96.3989C159.509 96.7952 159.432 97.2796 159.377 97.8521H158.997C159.019 97.676 159.03 97.4723 159.03 97.2411C159.041 97.0099 159.047 96.7622 159.047 96.4979C159.047 96.2888 159.036 95.9915 159.014 95.6062C159.003 95.2098 158.975 94.8025 158.931 94.3841C159.339 94.3951 159.785 94.4062 160.269 94.4172C160.753 94.4282 161.238 94.4337 161.722 94.4337C162.207 94.4337 162.647 94.4337 163.043 94.4337C163.671 94.4337 164.342 94.4337 165.058 94.4337C165.785 94.4227 166.451 94.4062 167.056 94.3841ZM172.683 94.3841V94.7144C172.309 94.7254 172.023 94.7695 171.825 94.8465C171.638 94.9126 171.511 95.0447 171.445 95.2429C171.379 95.43 171.346 95.7273 171.346 96.1346V104.326C171.346 104.722 171.379 105.019 171.445 105.217C171.511 105.416 171.638 105.548 171.825 105.614C172.023 105.68 172.309 105.724 172.683 105.746V106.076C172.43 106.054 172.111 106.043 171.726 106.043C171.351 106.032 170.971 106.027 170.586 106.027C170.157 106.027 169.755 106.032 169.381 106.043C169.006 106.043 168.704 106.054 168.472 106.076V105.746C168.847 105.724 169.127 105.68 169.315 105.614C169.513 105.548 169.645 105.416 169.711 105.217C169.777 105.019 169.81 104.722 169.81 104.326V96.1346C169.81 95.7273 169.777 95.43 169.711 95.2429C169.645 95.0447 169.513 94.9126 169.315 94.8465C169.127 94.7695 168.847 94.7254 168.472 94.7144V94.3841C168.704 94.3951 169.006 94.4062 169.381 94.4172C169.755 94.4282 170.157 94.4337 170.586 94.4337C170.971 94.4337 171.351 94.4282 171.726 94.4172C172.111 94.4062 172.43 94.3951 172.683 94.3841ZM184.439 94.3841V94.7144C184.065 94.7254 183.779 94.7805 183.581 94.8796C183.393 94.9786 183.267 95.1383 183.201 95.3585C183.135 95.5787 183.102 95.8924 183.102 96.2998V106.159C183.036 106.159 182.97 106.159 182.904 106.159C182.848 106.159 182.788 106.159 182.722 106.159L175.786 95.441V104.161C175.786 104.557 175.819 104.871 175.885 105.102C175.962 105.322 176.105 105.482 176.314 105.581C176.535 105.669 176.859 105.724 177.289 105.746V106.076C177.091 106.054 176.832 106.043 176.513 106.043C176.193 106.032 175.891 106.027 175.604 106.027C175.329 106.027 175.048 106.032 174.762 106.043C174.487 106.043 174.256 106.054 174.068 106.076V105.746C174.443 105.724 174.724 105.669 174.911 105.581C175.109 105.482 175.241 105.322 175.307 105.102C175.373 104.871 175.406 104.557 175.406 104.161V96.1346C175.406 95.7273 175.373 95.43 175.307 95.2429C175.241 95.0447 175.109 94.9126 174.911 94.8465C174.724 94.7695 174.443 94.7254 174.068 94.7144V94.3841C174.256 94.3951 174.487 94.4062 174.762 94.4172C175.048 94.4282 175.329 94.4337 175.604 94.4337C175.846 94.4337 176.078 94.4282 176.298 94.4172C176.518 94.4062 176.716 94.3951 176.892 94.3841L182.722 103.368V96.2998C182.722 95.8924 182.683 95.5787 182.606 95.3585C182.54 95.1383 182.397 94.9786 182.177 94.8796C181.968 94.7805 181.648 94.7254 181.219 94.7144V94.3841C181.417 94.3951 181.676 94.4062 181.995 94.4172C182.326 94.4282 182.628 94.4337 182.904 94.4337C183.19 94.4337 183.471 94.4282 183.746 94.4172C184.032 94.4062 184.263 94.3951 184.439 94.3841ZM193.969 94.3841C193.925 94.7695 193.892 95.1438 193.87 95.5071C193.859 95.8704 193.853 96.1456 193.853 96.3328C193.853 96.531 193.859 96.7236 193.87 96.9108C193.881 97.087 193.892 97.2356 193.903 97.3567H193.523C193.457 96.7071 193.363 96.1952 193.242 95.8209C193.121 95.4355 192.912 95.1658 192.615 95.0117C192.329 94.8465 191.894 94.764 191.31 94.764H189.939C189.565 94.764 189.279 94.797 189.081 94.863C188.894 94.9181 188.767 95.0447 188.701 95.2429C188.635 95.43 188.602 95.7273 188.602 96.1346V104.326C188.602 104.722 188.635 105.019 188.701 105.217C188.767 105.416 188.894 105.548 189.081 105.614C189.279 105.669 189.565 105.696 189.939 105.696H191.145C191.839 105.696 192.362 105.603 192.714 105.416C193.077 105.228 193.336 104.926 193.49 104.507C193.655 104.078 193.776 103.5 193.853 102.773H194.233C194.2 103.071 194.184 103.467 194.184 103.962C194.184 104.172 194.189 104.474 194.2 104.871C194.222 105.256 194.255 105.658 194.299 106.076C193.738 106.054 193.105 106.043 192.4 106.043C191.695 106.032 191.068 106.027 190.517 106.027C190.275 106.027 189.962 106.027 189.576 106.027C189.202 106.027 188.795 106.032 188.354 106.043C187.914 106.043 187.468 106.049 187.016 106.06C186.565 106.06 186.136 106.065 185.728 106.076V105.746C186.103 105.724 186.383 105.68 186.571 105.614C186.769 105.548 186.901 105.416 186.967 105.217C187.033 105.019 187.066 104.722 187.066 104.326V96.1346C187.066 95.7273 187.033 95.43 186.967 95.2429C186.901 95.0447 186.769 94.9126 186.571 94.8465C186.383 94.7695 186.103 94.7254 185.728 94.7144V94.3841C186.136 94.3951 186.565 94.4062 187.016 94.4172C187.468 94.4172 187.914 94.4227 188.354 94.4337C188.795 94.4337 189.202 94.4337 189.576 94.4337C189.962 94.4337 190.275 94.4337 190.517 94.4337C191.024 94.4337 191.596 94.4337 192.235 94.4337C192.885 94.4227 193.463 94.4062 193.969 94.3841ZM191.129 100.032C191.129 100.032 191.129 100.087 191.129 100.197C191.129 100.307 191.129 100.362 191.129 100.362H188.106C188.106 100.362 188.106 100.307 188.106 100.197C188.106 100.087 188.106 100.032 188.106 100.032H191.129ZM191.607 97.8521C191.563 98.4797 191.541 98.9586 191.541 99.2888C191.552 99.6191 191.558 99.9219 191.558 100.197C191.558 100.472 191.563 100.775 191.574 101.105C191.585 101.436 191.613 101.915 191.657 102.542H191.277C191.233 102.19 191.178 101.849 191.112 101.518C191.057 101.177 190.925 100.902 190.716 100.693C190.517 100.472 190.176 100.362 189.692 100.362V100.032C190.055 100.032 190.33 99.9604 190.517 99.8173C190.716 99.6632 190.859 99.4705 190.947 99.2393C191.035 99.0081 191.095 98.7714 191.129 98.5292C191.162 98.276 191.195 98.0503 191.228 97.8521H191.607Z" fill="#F0F9F1"/>
</svg>
