<svg width="236" height="46" viewBox="0 0 236 46" fill="none" xmlns="http://www.w3.org/2000/svg">
<g clip-path="url(#clip0_1967_23067)">
<mask id="mask0_1967_23067" style="mask-type:luminance" maskUnits="userSpaceOnUse" x="0" y="1" width="236" height="45">
<path d="M235.518 1.51953H0.0175781V45.0195H235.518V1.51953Z" fill="white"/>
</mask>
<g mask="url(#mask0_1967_23067)">
<path d="M63.8051 27.4993C63.8268 28.0487 63.9873 28.5832 64.2711 29.051C64.5549 29.519 64.9526 29.9045 65.4255 30.1706C66.416 30.6098 67.4888 30.8237 68.5691 30.7972C69.6408 30.874 70.7148 30.6814 71.6964 30.2365C72.0056 30.0571 72.2586 29.7923 72.4263 29.4728C72.5942 29.1535 72.6696 28.7921 72.6443 28.4309C72.6476 27.854 72.4364 27.2974 72.0528 26.8726C71.4195 26.3246 70.6299 25.9979 69.8006 25.9409L66.6488 25.4297C63.878 24.9845 61.7877 24.226 60.4589 23.1377C59.1302 22.0493 58.4253 20.4169 58.4253 18.1907C58.4109 17.1343 58.6649 16.0921 59.1626 15.1649C59.6558 14.2569 60.3525 13.48 61.1963 12.8975C62.1425 12.2257 63.1947 11.7237 64.3074 11.4135C65.613 11.0614 66.9591 10.8895 68.3097 10.9023C69.846 10.8685 71.379 11.0573 72.8631 11.4629C73.9445 11.7607 74.9594 12.2673 75.8526 12.9553C76.6053 13.5414 77.2059 14.3055 77.6027 15.1814C78.0096 16.0816 78.2982 17.0324 78.4616 18.0094L72.9927 18.7267C72.8171 17.7992 72.3302 16.9628 71.6154 16.3604C70.6694 15.7498 69.5571 15.4611 68.4393 15.5359C67.7564 15.5223 67.074 15.5887 66.4058 15.7338C65.9583 15.8275 65.5305 16.0004 65.1419 16.2449C64.8629 16.4212 64.634 16.6684 64.4775 16.9622C64.3566 17.1937 64.2902 17.4505 64.2831 17.7125C64.253 18.0233 64.2995 18.3368 64.4183 18.6247C64.5371 18.9125 64.7246 19.1659 64.9637 19.3615C65.7785 19.8347 66.6803 20.1322 67.613 20.2355L70.5054 20.7302C71.8616 20.9356 73.1942 21.278 74.4834 21.7525C75.4073 22.0984 76.2573 22.6219 76.9869 23.2943C77.6012 23.878 78.0561 24.6137 78.3075 25.4297C78.569 26.371 78.6945 27.3458 78.6803 28.3237C78.7146 29.3351 78.5121 30.3403 78.0896 31.2563C77.6669 32.1724 77.0363 32.9731 76.2497 33.5921C74.6292 34.9196 72.0933 35.5792 68.6825 35.5792C67.3691 35.5819 66.0585 35.455 64.7691 35.2C63.5933 34.9703 62.468 34.5262 61.4474 33.889C60.4604 33.2666 59.6285 32.42 59.0168 31.4155C58.3482 30.2198 57.9807 28.8745 57.9473 27.4993H63.8051Z" fill="white"/>
<path d="M92.1118 35.605C88.4335 35.605 85.5869 34.5359 83.5723 32.3977C81.5576 30.2596 80.5529 27.2035 80.5583 23.2294C80.5322 21.4796 80.8064 19.7384 81.3685 18.0845C81.8576 16.6381 82.648 15.3163 83.6857 14.2095C84.7135 13.1377 85.9612 12.31 87.3397 11.7855C88.8664 11.2122 90.4846 10.9326 92.1118 10.961C93.7522 10.9321 95.3836 11.2116 96.9242 11.7855C98.2993 12.3123 99.5438 13.1397 100.57 14.2095C101.608 15.313 102.394 16.6363 102.871 18.0845C103.425 19.7405 103.699 21.4802 103.681 23.2294C103.709 24.9928 103.435 26.7476 102.871 28.4155C102.38 29.866 101.59 31.1927 100.554 32.3071C99.5327 33.3989 98.2843 34.244 96.8999 34.7804C95.3692 35.3599 93.7447 35.6396 92.1118 35.605ZM92.1118 30.6169C92.8684 30.6707 93.626 30.5252 94.3114 30.1945C94.9969 29.8639 95.587 29.359 96.025 28.7287C96.9797 27.0748 97.4282 25.1687 97.3132 23.2541C97.3132 20.8796 96.8837 19.0685 96.025 17.8208C95.5475 17.2346 94.949 16.7627 94.2719 16.439C93.5948 16.1152 92.8558 15.9472 92.1077 15.9472C91.3595 15.9472 90.6206 16.1152 89.9435 16.439C89.2664 16.7627 88.6678 17.2346 88.1903 17.8208C87.3316 19.0685 86.9021 20.8796 86.9021 23.2541C86.9021 25.6534 87.3235 27.4921 88.1741 28.7534C88.6177 29.3824 89.213 29.8843 89.9029 30.2107C90.5926 30.5371 91.3534 30.677 92.1118 30.6169Z" fill="white"/>
<path d="M107.248 3.10156H113.373V34.8857H107.248V3.10156Z" fill="white"/>
<path d="M131.309 31.9505C130.439 32.9621 129.413 33.8226 128.271 34.4981C126.926 35.2032 125.424 35.5412 123.912 35.4792C122.929 35.4813 121.95 35.3454 121.004 35.0753C120.119 34.8323 119.292 34.4087 118.573 33.8303C117.881 33.2421 117.328 32.5041 116.953 31.6701C116.518 30.6834 116.307 29.6097 116.337 28.5288C116.275 27.1431 116.643 25.7727 117.39 24.6125C118.095 23.5994 119.043 22.7874 120.145 22.2545C121.357 21.6615 122.648 21.2531 123.977 21.0425C125.403 20.8023 126.843 20.6537 128.287 20.5973L131.22 20.4653V19.3028C131.22 17.8847 130.831 16.9035 130.062 16.3676C129.254 15.8123 128.298 15.5244 127.323 15.5431C124.909 15.5431 123.523 16.4775 123.167 18.3464L117.568 17.8104C117.685 16.7507 118.028 15.7296 118.572 14.8183C119.116 13.907 119.85 13.1274 120.72 12.5337C122.8 11.3447 125.167 10.7734 127.55 10.8848C129.061 10.8477 130.567 11.0679 132.006 11.5361C133.126 11.8958 134.141 12.53 134.963 13.383C135.721 14.2101 136.276 15.2072 136.584 16.2935C136.931 17.5458 137.1 18.8424 137.086 20.1438V34.8857H131.309V31.9505ZM131.18 24.53L128.466 24.662C127.421 24.6938 126.381 24.8292 125.362 25.0659C124.715 25.2128 124.098 25.4751 123.54 25.841C123.152 26.1087 122.855 26.4917 122.689 26.9376C122.538 27.3803 122.464 27.846 122.47 28.3145C122.457 28.6625 122.523 29.009 122.664 29.3267C122.804 29.6442 123.015 29.9243 123.28 30.1448C123.909 30.6236 124.684 30.8601 125.468 30.8126C126.835 30.8756 128.186 30.485 129.316 29.6996C129.876 29.2773 130.34 28.7375 130.677 28.1166C131.05 27.381 131.231 26.5608 131.204 25.7337L131.18 24.53Z" fill="white"/>
<path d="M141.193 11.6544H147.148V14.9028C147.82 13.7645 148.769 12.8216 149.903 12.1655C150.943 11.565 152.118 11.2497 153.315 11.2504C153.796 11.2469 154.276 11.2689 154.756 11.3163C155.137 11.3163 155.469 11.4153 155.761 11.473L155.023 17.1289C154.176 16.9317 153.309 16.8403 152.439 16.8568C151.789 16.8543 151.14 16.9374 150.511 17.1042C149.895 17.2695 149.326 17.5801 148.85 18.0112C148.344 18.4629 147.948 19.0272 147.691 19.6602C147.445 20.2377 147.318 20.8608 147.318 21.4905V34.9297H141.193V11.6544Z" fill="white"/>
<path d="M162.414 27.4993C162.436 28.0488 162.597 28.5834 162.88 29.0512C163.164 29.5192 163.561 29.9047 164.034 30.1707C165.028 30.6099 166.104 30.8238 167.185 30.7974C168.258 30.8731 169.332 30.6807 170.313 30.2367C170.62 30.0547 170.871 29.7892 171.036 29.4702C171.202 29.1511 171.277 28.7913 171.253 28.4311C171.261 27.8535 171.049 27.2953 170.662 26.8728C170.029 26.3232 169.239 25.9965 168.409 25.9411L165.298 25.4299C162.528 24.9847 160.437 24.2262 159.108 23.1379C158.407 22.5369 157.858 21.7747 157.504 20.9145C157.15 20.0542 157.003 19.1206 157.075 18.1909C157.059 17.1364 157.308 16.0953 157.795 15.1651C158.289 14.257 158.986 13.4802 159.829 12.8977C160.768 12.2299 161.812 11.7282 162.916 11.4136C164.221 11.0621 165.568 10.8901 166.918 10.9024C168.454 10.8679 169.989 11.0567 171.472 11.4631C172.555 11.7625 173.572 12.269 174.469 12.9554C175.218 13.5462 175.818 14.3091 176.22 15.1815C176.623 16.0822 176.91 17.0329 177.07 18.0096L171.601 18.7269C171.427 17.8012 170.94 16.9668 170.224 16.3689C169.273 15.7815 168.165 15.5159 167.056 15.6103C166.371 15.5967 165.685 15.6631 165.015 15.8082C164.568 15.9048 164.14 16.0777 163.75 16.3194C163.471 16.4932 163.245 16.7413 163.095 17.0367C162.973 17.2681 162.907 17.5249 162.9 17.787C162.868 18.097 162.915 18.4099 163.032 18.6978C163.149 18.9856 163.335 19.2393 163.572 19.4359C164.388 19.909 165.289 20.2066 166.222 20.3098L169.107 20.7963C170.464 21.0028 171.799 21.3453 173.092 21.8187C174.019 22.1628 174.873 22.6863 175.603 23.3605C176.211 23.9218 176.664 24.6354 176.916 25.4299C177.181 26.3703 177.307 27.3457 177.289 28.3239C177.322 29.335 177.12 30.3399 176.697 31.2556C176.274 32.1715 175.644 32.9724 174.859 33.5923C173.238 34.917 170.716 35.5794 167.292 35.5794C165.975 35.5825 164.662 35.4555 163.369 35.2002C162.195 34.9704 161.068 34.5264 160.048 33.8892C159.058 33.2697 158.226 32.4225 157.617 31.4157C156.942 30.2232 156.574 28.8759 156.549 27.4993H162.414Z" fill="white"/>
<path d="M190.724 35.6043C187.046 35.6043 184.202 34.535 182.192 32.3969C180.183 30.2587 179.175 27.2026 179.169 23.2287C179.148 21.479 179.421 19.7387 179.981 18.0838C180.473 16.6369 181.265 15.315 182.306 14.2087C183.332 13.139 184.577 12.3115 185.951 11.7847C189.05 10.6525 192.438 10.6525 195.536 11.7847C196.913 12.3114 198.161 13.1388 199.19 14.2087C200.225 15.3127 201.008 16.636 201.483 18.0838C202.037 19.7396 202.311 21.4794 202.293 23.2287C202.316 24.9917 202.043 26.7459 201.483 28.4146C200.988 29.8636 200.199 31.1899 199.166 32.3062C198.143 33.3964 196.895 34.2414 195.512 34.7797C193.98 35.3575 192.356 35.6373 190.724 35.6043ZM190.724 30.616C191.48 30.6698 192.237 30.5245 192.923 30.1938C193.608 29.863 194.199 29.3583 194.637 28.728C195.594 27.0751 196.046 25.1689 195.933 23.2534C196.05 21.3505 195.599 19.456 194.637 17.82C194.16 17.2339 193.562 16.7623 192.885 16.4384C192.209 16.1146 191.471 15.9468 190.724 15.9468C189.975 15.9468 189.237 16.1146 188.561 16.4384C187.884 16.7623 187.287 17.2339 186.81 17.82C185.946 19.0458 185.528 20.8486 185.555 23.2287C185.426 25.1451 185.853 27.0577 186.786 28.728C187.226 29.3614 187.821 29.8681 188.511 30.199C189.2 30.5298 189.963 30.6735 190.724 30.616Z" fill="white"/>
<path d="M207.299 16.4989H203.719V11.651H207.299V10.8924C207.274 9.63268 207.482 8.37934 207.916 7.19872C208.274 6.23022 208.852 5.36062 209.6 4.6593C210.329 3.99834 211.189 3.50358 212.12 3.20821C213.139 2.89273 214.199 2.73705 215.264 2.7465C216.032 2.74729 216.8 2.79133 217.565 2.87841C218.404 2.97474 219.232 3.15423 220.036 3.41433L219.226 7.94901C218.354 7.72374 217.459 7.60471 216.56 7.59448C215.791 7.58839 215.039 7.83087 214.414 8.28705C214.067 8.58805 213.799 8.97106 213.632 9.40237C213.464 9.83368 213.404 10.3001 213.457 10.7605V11.651H218.747V16.4989H213.457V34.885H207.323L207.299 16.4989Z" fill="white"/>
<path d="M223.356 16.5009H219.775V11.6528H223.356V5.46094H229.482V11.6528H234.732V16.5009H229.482V27.2191C229.428 27.6616 229.465 28.1107 229.594 28.5369C229.723 28.9632 229.938 29.3571 230.227 29.6926C230.769 30.144 231.456 30.3759 232.155 30.3439C232.56 30.3439 232.965 30.3439 233.403 30.2781C233.821 30.229 234.237 30.1464 234.642 30.0307L235.518 34.6149C234.711 34.873 233.884 35.0578 233.046 35.1673C232.285 35.2704 231.52 35.3226 230.754 35.3239C228.241 35.3239 226.386 34.722 225.171 33.5017C223.956 32.2815 223.356 30.2038 223.356 27.3594V16.5009Z" fill="white"/>
<path d="M42.7473 22.1318C42.7473 21.4805 42.6501 20.8208 42.561 20.1943C42.4319 19.2328 42.2342 18.2821 41.9696 17.3498C40.7972 13.1254 38.3945 9.36168 35.078 6.55485C31.7615 3.74802 27.687 2.02983 23.3918 1.62678C22.7271 1.55364 22.059 1.51785 21.3906 1.51959C20.6136 1.51763 19.8372 1.56168 19.0653 1.65151C14.1736 2.19277 9.61593 4.43763 6.16398 8.00606C2.71204 11.5745 0.577911 16.2472 0.122904 21.2332C0.0175781 21.9175 0.0175781 22.5853 0.0175781 23.2696C0.0181476 24.0049 0.0560072 24.7397 0.131006 25.471C0.514506 29.3888 1.94647 33.1246 4.27111 36.2717C4.50312 36.611 4.75471 36.9359 5.02459 37.2446C5.20284 37.459 5.38108 37.6817 5.57553 37.8878C5.76997 38.0939 6.03735 38.399 6.28041 38.6464L7.01769 39.3719C7.52014 39.8434 8.04756 40.2865 8.59756 40.6993C8.87304 40.9054 9.1485 41.1032 9.40776 41.3012C9.66702 41.4991 9.97489 41.6887 10.2747 41.8783C10.8499 42.2246 11.4576 42.5626 12.0652 42.8677H12.1057L13.0374 43.2964C14.3257 43.8514 15.6632 44.2793 17.0318 44.5744H17.1047C17.4287 44.6404 17.769 44.7062 18.1011 44.7557C18.4334 44.8052 18.8141 44.8547 19.1787 44.8877C19.5434 44.9207 19.8998 44.9536 20.2563 44.9701C20.6127 44.9866 20.9288 44.9701 21.269 44.9701H21.3582C21.666 44.9701 21.9821 44.9701 22.2899 44.9701C22.5978 44.9701 22.7841 44.9701 23.0352 44.9701H23.1974L24.0804 44.863C26.4902 44.5682 28.8299 43.8425 30.9914 42.7193L31.8017 42.2905C32.312 42.002 32.7981 41.6969 33.2762 41.3753C33.6327 41.1362 33.9729 40.8889 34.3052 40.6333C34.8074 40.2376 35.3016 39.8089 35.7554 39.4048C38.3171 37.0429 40.2773 34.0835 41.4672 30.7807C41.5806 30.4591 41.6942 30.1376 41.7995 29.7995C41.7995 29.7995 41.7995 29.75 41.7995 29.7253C41.8967 29.4175 41.9858 29.1043 42.0668 28.7854C42.1235 28.5215 42.1883 28.2742 42.2531 28.0187C42.318 27.7631 42.318 27.6971 42.3504 27.5323C42.4152 27.1859 42.4719 26.8396 42.5286 26.4934C42.5853 26.147 42.6096 25.8584 42.6339 25.5205C42.6582 25.1824 42.6987 24.7949 42.723 24.4238C42.7473 24.0529 42.723 23.69 42.723 23.3108V23.2696C42.7554 22.8848 42.7635 22.5056 42.7473 22.1318ZM31.1129 23.3603C31.1129 24.6959 31.1129 26.0069 31.1129 27.326C31.1447 27.827 31.034 28.3267 30.794 28.7654C30.554 29.204 30.195 29.563 29.7599 29.7995L22.7193 33.922C22.3214 34.1768 21.8607 34.312 21.3906 34.312C20.9204 34.312 20.4599 34.1768 20.0619 33.922C17.7447 32.5616 15.4437 31.1929 13.1185 29.7995C12.6661 29.5591 12.2903 29.1926 12.035 28.7429C11.7796 28.2934 11.6552 27.779 11.6763 27.2602C11.6763 24.6301 11.6763 21.9752 11.6763 19.345C11.6546 18.8041 11.7877 18.2683 12.0595 17.8028C12.3314 17.3374 12.7302 16.9622 13.2076 16.7231C15.4599 15.426 17.7042 14.1068 19.9403 12.7656C20.3633 12.4773 20.8593 12.32 21.3684 12.3127C21.8774 12.3054 22.3776 12.4484 22.8084 12.7244C25.077 14.0765 27.3455 15.4287 29.6465 16.7561C30.1199 16.9969 30.5121 17.3756 30.7733 17.8439C31.0344 18.3124 31.1526 18.8492 31.1129 19.3862C31.0805 20.7302 31.1129 22.0411 31.1129 23.3603Z" fill="white"/>
</g>
</g>
<defs>
<clipPath id="clip0_1967_23067">
<rect width="235.5" height="45" fill="white" transform="translate(0.0175781 0.769531)"/>
</clipPath>
</defs>
</svg>
