<svg width="215" height="69" viewBox="0 0 215 69" fill="none" xmlns="http://www.w3.org/2000/svg">
<path d="M34.8346 63.3459H34.9069V63.3439C50.7091 63.305 63.5082 50.5258 63.5082 34.7676C63.5082 18.9853 50.672 6.19116 34.8346 6.19116C18.9972 6.19116 6.16108 18.9873 6.16108 34.7695C6.16108 50.5518 18.9992 63.3459 34.8346 63.3459ZM0.791013 34.7695C0.791013 16.0325 16.0331 0.841794 34.8346 0.841794C53.6362 0.841794 68.8782 16.0325 68.8782 34.7695C68.8782 53.5066 53.6362 68.6973 34.8346 68.6973C16.0331 68.6973 0.791013 53.5066 0.791013 34.7695Z" fill="#FAFAFA" stroke="#FAFAFA" stroke-width="0.144526"/>
<path d="M9.06054 34.767C9.06054 20.5816 20.5979 9.08301 34.8323 9.08301C49.0646 9.08301 60.604 20.5835 60.604 34.767C60.604 48.9504 49.0646 60.4509 34.8323 60.4509C20.5999 60.4509 9.06054 48.9523 9.06054 34.767ZM14.4286 34.767C14.4286 45.9975 23.5641 55.1015 34.8323 55.1015C46.1005 55.1015 55.2359 45.9975 55.2359 34.767C55.2359 23.5364 46.1005 14.4324 34.8323 14.4324C23.5641 14.4324 14.4286 23.5364 14.4286 34.767Z" fill="#FAFAFA" stroke="#FAFAFA" stroke-width="0.144526"/>
<path d="M17.332 34.7683C17.332 25.1346 25.1667 17.3262 34.8338 17.3262C44.5009 17.3262 52.3356 25.1366 52.3356 34.7683C52.3356 44.4 44.5009 52.2104 34.8338 52.2104C25.1667 52.2104 17.332 44.402 17.332 34.7683ZM22.7001 34.7683C22.7001 41.4471 28.1328 46.861 34.8338 46.861C41.5348 46.861 46.9675 41.4471 46.9675 34.7683C46.9675 28.0894 41.5348 22.6755 34.8338 22.6755C28.1328 22.6755 22.7001 28.0894 22.7001 34.7683Z" fill="#FAFAFA" stroke="#FAFAFA" stroke-width="0.144526"/>
<path d="M44.0653 34.7696C44.0653 39.8496 39.9314 43.9699 34.8334 43.9699C29.7355 43.9699 25.6016 39.8516 25.6016 34.7696C25.6016 29.6876 29.7355 25.5693 34.8334 25.5693C39.9314 25.5693 44.0653 29.6896 44.0653 34.7696Z" fill="#FAFAFA" stroke="#FAFAFA" stroke-width="0.144526"/>
<path d="M96.5901 48.0646L104.461 24.1722H112.837L101.312 55.3167H91.7554L80.2871 24.1722H88.7197L96.5901 48.0646Z" fill="#FAFAFA"/>
<path d="M128.164 55.8226C125.165 55.8226 122.467 55.1667 120.068 53.855C117.67 52.5058 115.777 50.6131 114.39 48.1771C113.041 45.741 112.367 42.9301 112.367 39.7445C112.367 36.5588 113.06 33.7479 114.447 31.3118C115.871 28.8758 117.801 27.0019 120.237 25.6901C122.673 24.3409 125.39 23.6663 128.388 23.6663C131.387 23.6663 134.104 24.3409 136.54 25.6901C138.976 27.0019 140.887 28.8758 142.274 31.3118C143.698 33.7479 144.41 36.5588 144.41 39.7445C144.41 42.9301 143.68 45.741 142.218 48.1771C140.794 50.6131 138.845 52.5058 136.371 53.855C133.935 55.1667 131.199 55.8226 128.164 55.8226ZM128.164 48.9641C129.588 48.9641 130.918 48.6268 132.155 47.9522C133.429 47.2401 134.441 46.1907 135.191 44.804C135.94 43.4173 136.315 41.7308 136.315 39.7445C136.315 36.7837 135.528 34.5162 133.954 32.9422C132.417 31.3306 130.525 30.5248 128.276 30.5248C126.027 30.5248 124.135 31.3306 122.598 32.9422C121.099 34.5162 120.349 36.7837 120.349 39.7445C120.349 42.7052 121.08 44.9914 122.542 46.603C124.041 48.1771 125.915 48.9641 128.164 48.9641Z" fill="#FAFAFA"/>
<path d="M155.131 28.7259C156.143 27.2267 157.529 26.0087 159.291 25.0717C161.09 24.1348 163.132 23.6663 165.418 23.6663C168.079 23.6663 170.478 24.3222 172.614 25.6339C174.788 26.9456 176.493 28.8195 177.73 31.2556C179.004 33.6542 179.641 36.4464 179.641 39.632C179.641 42.8177 179.004 45.6473 177.73 48.1208C176.493 50.5569 174.788 52.4496 172.614 53.7988C170.478 55.148 168.079 55.8226 165.418 55.8226C163.095 55.8226 161.052 55.3729 159.291 54.4734C157.567 53.5364 156.18 52.3371 155.131 50.8755V55.3167H147.26V13.7158H155.131V28.7259ZM171.602 39.632C171.602 37.7581 171.209 36.1465 170.422 34.7973C169.672 33.4106 168.66 32.3612 167.386 31.6492C166.149 30.9371 164.8 30.581 163.338 30.581C161.914 30.581 160.565 30.9558 159.291 31.7054C158.054 32.4175 157.042 33.4668 156.255 34.8535C155.506 36.2402 155.131 37.8705 155.131 39.7445C155.131 41.6184 155.506 43.2487 156.255 44.6354C157.042 46.0221 158.054 47.0902 159.291 47.8398C160.565 48.5518 161.914 48.9079 163.338 48.9079C164.8 48.9079 166.149 48.5331 167.386 47.7835C168.66 47.034 169.672 45.9658 170.422 44.5791C171.209 43.1924 171.602 41.5434 171.602 39.632Z" fill="#FAFAFA"/>
<path d="M190.308 28.7259C191.32 27.2267 192.706 26.0087 194.468 25.0717C196.267 24.1348 198.309 23.6663 200.596 23.6663C203.257 23.6663 205.655 24.3222 207.791 25.6339C209.965 26.9456 211.67 28.8195 212.907 31.2556C214.181 33.6542 214.819 36.4464 214.819 39.632C214.819 42.8177 214.181 45.6473 212.907 48.1208C211.67 50.5569 209.965 52.4496 207.791 53.7988C205.655 55.148 203.257 55.8226 200.596 55.8226C198.272 55.8226 196.229 55.3729 194.468 54.4734C192.744 53.5364 191.357 52.3371 190.308 50.8755V55.3167H182.437V13.7158H190.308V28.7259ZM206.779 39.632C206.779 37.7581 206.386 36.1465 205.599 34.7973C204.849 33.4106 203.837 32.3612 202.563 31.6492C201.326 30.9371 199.977 30.581 198.516 30.581C197.091 30.581 195.742 30.9558 194.468 31.7054C193.231 32.4175 192.219 33.4668 191.432 34.8535C190.683 36.2402 190.308 37.8705 190.308 39.7445C190.308 41.6184 190.683 43.2487 191.432 44.6354C192.219 46.0221 193.231 47.0902 194.468 47.8398C195.742 48.5518 197.091 48.9079 198.516 48.9079C199.977 48.9079 201.326 48.5331 202.563 47.7835C203.837 47.034 204.849 45.9658 205.599 44.5791C206.386 43.1924 206.779 41.5434 206.779 39.632Z" fill="#FAFAFA"/>
</svg>
