<svg width="150" height="150" viewBox="0 0 150 150" fill="none" xmlns="http://www.w3.org/2000/svg">
<circle cx="75" cy="75" r="75" fill="#1C1C1C"/>
<path d="M63.24 83.872V88.48H62.088V78.16H63.24V79.088C63.8267 78.3627 64.584 78 65.512 78C66.504 78 67.288 78.352 67.864 79.056C68.4507 79.7494 68.744 80.5707 68.744 81.52C68.744 82.48 68.456 83.3014 67.88 83.984C67.304 84.656 66.5307 84.992 65.56 84.992C64.5893 84.992 63.816 84.6187 63.24 83.872ZM65.4 83.968C66.0507 83.968 66.5733 83.7334 66.968 83.264C67.3627 82.784 67.56 82.2027 67.56 81.52C67.56 80.752 67.3413 80.144 66.904 79.696C66.4667 79.248 65.96 79.024 65.384 79.024C64.808 79.024 64.296 79.248 63.848 79.696C63.4 80.144 63.176 80.7467 63.176 81.504C63.176 82.1974 63.3787 82.784 63.784 83.264C64.2 83.7334 64.7387 83.968 65.4 83.968ZM70.5099 73.136H71.6619V84.8H70.5099V73.136ZM78.926 79.104V78.16H80.078V84.8H78.926V83.872C78.35 84.6187 77.5927 84.992 76.654 84.992C75.758 84.992 74.9953 84.6827 74.366 84.064C73.7367 83.4454 73.422 82.5814 73.422 81.472C73.422 80.384 73.7313 79.536 74.35 78.928C74.9793 78.3094 75.7473 78 76.654 78C77.614 78 78.3713 78.368 78.926 79.104ZM76.782 79.024C76.174 79.024 75.6567 79.2427 75.23 79.68C74.814 80.1067 74.606 80.704 74.606 81.472C74.606 82.208 74.798 82.8107 75.182 83.28C75.5767 83.7387 76.11 83.968 76.782 83.968C77.454 83.968 77.9873 83.728 78.382 83.248C78.7873 82.768 78.99 82.1814 78.99 81.488C78.99 80.6987 78.766 80.0907 78.318 79.664C77.87 79.2374 77.358 79.024 76.782 79.024ZM82.2439 88.48L84.3559 84.176L81.2999 78.16H82.6119L84.9639 82.912L87.1239 78.16H88.4039L83.5239 88.48H82.2439Z" fill="#E0E0E0"/>
</svg>
