<svg width="51" height="51" viewBox="0 0 51 51" fill="none" xmlns="http://www.w3.org/2000/svg">
<circle cx="25.5" cy="25.5" r="24.5" stroke="#808080" stroke-width="2"/>
<g clip-path="url(#clip0_2364_26918)">
<path d="M20.6675 25C20.6675 22.0546 23.0546 19.6662 26 19.6662C28.9454 19.6662 31.3338 22.0546 31.3338 25C31.3338 27.9454 28.9454 30.3338 26 30.3338C23.0546 30.3338 20.6675 27.9454 20.6675 25ZM17.7842 25C17.7842 29.5376 21.4624 33.2158 26 33.2158C30.5376 33.2158 34.2158 29.5376 34.2158 25C34.2158 20.4624 30.5376 16.7842 26 16.7842C21.4624 16.7842 17.7842 20.4624 17.7842 25ZM32.621 16.4585C32.621 17.5183 33.4805 18.379 34.5415 18.379C35.6013 18.379 36.462 17.5183 36.462 16.4585C36.462 15.3987 35.6026 14.5393 34.5415 14.5393C33.4805 14.5393 32.621 15.3987 32.621 16.4585ZM19.5354 38.0236C17.9754 37.9525 17.1276 37.6927 16.5641 37.473C15.8171 37.1822 15.2847 36.8359 14.7237 36.2763C14.1641 35.7166 13.8165 35.1842 13.527 34.4372C13.3073 33.8737 13.0475 33.0258 12.9764 31.4659C12.8989 29.7793 12.8834 29.2727 12.8834 25C12.8834 20.7273 12.9002 20.222 12.9764 18.5341C13.0475 16.9742 13.3086 16.1276 13.527 15.5628C13.8178 14.8158 14.1641 14.2834 14.7237 13.7225C15.2834 13.1628 15.8158 12.8152 16.5641 12.5257C17.1276 12.306 17.9754 12.0462 19.5354 11.9751C21.222 11.8976 21.7286 11.8821 26 11.8821C30.2727 11.8821 30.778 11.8989 32.4659 11.9751C34.0259 12.0462 34.8724 12.3073 35.4372 12.5257C36.1842 12.8152 36.7166 13.1628 37.2775 13.7225C37.8372 14.2821 38.1835 14.8158 38.4743 15.5628C38.694 16.1263 38.9538 16.9742 39.0249 18.5341C39.1024 20.222 39.1179 20.7273 39.1179 25C39.1179 29.2714 39.1024 29.778 39.0249 31.4659C38.9538 33.0258 38.6927 33.8737 38.4743 34.4372C38.1835 35.1842 37.8372 35.7166 37.2775 36.2763C36.7179 36.8359 36.1842 37.1822 35.4372 37.473C34.8737 37.6927 34.0259 37.9525 32.4659 38.0236C30.7793 38.1011 30.2727 38.1166 26 38.1166C21.7286 38.1166 21.222 38.1011 19.5354 38.0236ZM19.4036 9.09693C17.7002 9.17447 16.537 9.44459 15.5199 9.84006C14.4679 10.2485 13.5761 10.7964 12.6856 11.6856C11.7964 12.5748 11.2485 13.4666 10.8401 14.5199C10.4446 15.537 10.1745 16.7002 10.0969 18.4036C10.0181 20.1095 10 20.6549 10 25C10 29.3451 10.0181 29.8905 10.0969 31.5964C10.1745 33.2998 10.4446 34.463 10.8401 35.4801C11.2485 36.5321 11.7952 37.4252 12.6856 38.3144C13.5748 39.2036 14.4666 39.7502 15.5199 40.1599C16.5383 40.5554 17.7002 40.8255 19.4036 40.9031C21.1108 40.9806 21.6549 41 26 41C30.3464 41 30.8905 40.9819 32.5964 40.9031C34.2998 40.8255 35.463 40.5554 36.4801 40.1599C37.5322 39.7502 38.4239 39.2036 39.3144 38.3144C40.2036 37.4252 40.7502 36.5321 41.1599 35.4801C41.5554 34.463 41.8268 33.2998 41.9031 31.5964C41.9806 29.8892 41.9987 29.3451 41.9987 25C41.9987 20.6549 41.9806 20.1095 41.9031 18.4036C41.8255 16.7002 41.5554 15.537 41.1599 14.5199C40.7502 13.4679 40.2036 12.5761 39.3144 11.6856C38.4252 10.7964 37.5322 10.2485 36.4814 9.84006C35.463 9.44459 34.2998 9.17318 32.5977 9.09693C30.8918 9.01939 30.3464 9 26.0013 9C21.6549 9 21.1108 9.01809 19.4036 9.09693Z" fill="#808080"/>
</g>
<defs>
<clipPath id="clip0_2364_26918">
<rect width="32" height="32" fill="white" transform="translate(10 9)"/>
</clipPath>
</defs>
</svg>
