<svg width="51" height="51" viewBox="0 0 51 51" fill="none" xmlns="http://www.w3.org/2000/svg">
<circle cx="25.5" cy="25.5" r="24.5" stroke="#808080" stroke-width="2"/>
<path d="M25.9997 24.81L38.7797 16.6C38.2659 16.2146 37.642 16.0043 36.9997 16H14.9997C14.3575 16.0043 13.7335 16.2146 13.2197 16.6L25.9997 24.81Z" fill="#808080"/>
<path d="M26.54 26.84L26.37 26.92H26.29C26.1979 26.9611 26.1001 26.9881 26 27C25.917 27.0105 25.833 27.0105 25.75 27H25.67L25.5 26.92L12.1 18.26C12.036 18.5015 12.0024 18.7501 12 19V33C12 33.7957 12.3161 34.5587 12.8787 35.1213C13.4413 35.6839 14.2044 36 15 36H37C37.7956 36 38.5587 35.6839 39.1213 35.1213C39.6839 34.5587 40 33.7957 40 33V19C39.9976 18.7501 39.964 18.5015 39.9 18.26L26.54 26.84Z" fill="#808080"/>
</svg>
