<svg width="51" height="51" viewBox="0 0 51 51" fill="none" xmlns="http://www.w3.org/2000/svg">
<circle cx="25.5" cy="25.5" r="24.5" stroke="#808080" stroke-width="2"/>
<path d="M39.3337 16.7333C38.3314 17.1681 37.2716 17.4555 36.187 17.5866C37.3312 16.9031 38.1887 15.8277 38.6003 14.56C37.5251 15.2001 36.348 15.651 35.1203 15.8933C34.2997 15.0034 33.2069 14.411 32.0134 14.2091C30.8199 14.0072 29.593 14.2071 28.5254 14.7776C27.4577 15.348 26.6096 16.2567 26.114 17.3611C25.6184 18.4655 25.5034 19.7032 25.787 20.88C23.6129 20.77 21.4862 20.2039 19.5452 19.2185C17.6041 18.233 15.8921 16.8502 14.5203 15.16C14.0392 16.0002 13.7864 16.9517 13.787 17.92C13.7853 18.8192 14.0059 19.7048 14.4293 20.4981C14.8527 21.2913 15.4657 21.9676 16.2137 22.4666C15.3443 22.443 14.4935 22.2097 13.7337 21.7866V21.8533C13.7402 23.1132 14.1817 24.3321 14.9834 25.3039C15.7852 26.2758 16.898 26.9408 18.1337 27.1866C17.658 27.3314 17.1642 27.4077 16.667 27.4133C16.3228 27.4093 15.9796 27.3781 15.6403 27.32C15.9922 28.4037 16.6732 29.3508 17.5884 30.0295C18.5037 30.7082 19.6078 31.0847 20.747 31.1066C18.8233 32.6203 16.4482 33.4464 14.0003 33.4533C13.5546 33.4548 13.1093 33.428 12.667 33.3733C15.1662 34.987 18.0787 35.8436 21.0537 35.84C23.1066 35.8613 25.1432 35.4733 27.0445 34.6987C28.9458 33.9242 30.6737 32.7785 32.1273 31.3286C33.5808 29.8788 34.7309 28.1538 35.5104 26.2545C36.2899 24.3552 36.683 22.3196 36.667 20.2666C36.667 20.04 36.667 19.8 36.667 19.56C37.7133 18.7797 38.6156 17.8232 39.3337 16.7333Z" fill="#808080"/>
</svg>
